<svg width="320" height="52" viewBox="0 0 320 52" fill="none" xmlns="http://www.w3.org/2000/svg">
<mask id="path-1-inside-1_4_388" fill="white">
<path fill-rule="evenodd" clip-rule="evenodd" d="M0 26C0 11.6406 11.6406 0 26 0H242C252.108 0 260.869 5.76798 265.17 14.192C265.719 15.2667 266.793 16 268 16C269.207 16 270.281 15.2667 270.83 14.192C275.131 5.76798 283.892 0 294 0C308.359 0 320 11.6406 320 26C320 40.3594 308.359 52 294 52C285.016 52 277.097 47.4436 272.426 40.5157C271.42 39.0232 269.8 38 268 38C266.2 38 264.58 39.0232 263.574 40.5157C258.903 47.4436 250.984 52 242 52H26C11.6406 52 0 40.3594 0 26Z"/>
</mask>
<path fill-rule="evenodd" clip-rule="evenodd" d="M0 26C0 11.6406 11.6406 0 26 0H242C252.108 0 260.869 5.76798 265.17 14.192C265.719 15.2667 266.793 16 268 16C269.207 16 270.281 15.2667 270.83 14.192C275.131 5.76798 283.892 0 294 0C308.359 0 320 11.6406 320 26C320 40.3594 308.359 52 294 52C285.016 52 277.097 47.4436 272.426 40.5157C271.42 39.0232 269.8 38 268 38C266.2 38 264.58 39.0232 263.574 40.5157C258.903 47.4436 250.984 52 242 52H26C11.6406 52 0 40.3594 0 26Z" fill="white" fill-opacity="0.06"/>
<path d="M263.574 40.5157L262.33 39.6772L263.574 40.5157ZM270.83 14.192L272.166 14.8742L270.83 14.192ZM272.426 40.5157L271.182 41.3542L272.426 40.5157ZM265.17 14.192L263.834 14.8742L265.17 14.192ZM26 -1.5C10.8122 -1.5 -1.5 10.8122 -1.5 26H1.5C1.5 12.469 12.469 1.5 26 1.5V-1.5ZM242 -1.5H26V1.5H242V-1.5ZM266.506 13.5099C261.958 4.60352 252.693 -1.5 242 -1.5V1.5C251.523 1.5 259.779 6.93243 263.834 14.8742L266.506 13.5099ZM272.166 14.8742C276.221 6.93243 284.477 1.5 294 1.5V-1.5C283.307 -1.5 274.042 4.60352 269.494 13.5099L272.166 14.8742ZM294 1.5C307.531 1.5 318.5 12.469 318.5 26H321.5C321.5 10.8122 309.188 -1.5 294 -1.5V1.5ZM318.5 26C318.5 39.531 307.531 50.5 294 50.5V53.5C309.188 53.5 321.5 41.1878 321.5 26H318.5ZM294 50.5C285.536 50.5 278.073 46.2092 273.67 39.6772L271.182 41.3542C276.12 48.678 284.497 53.5 294 53.5V50.5ZM242 53.5C251.503 53.5 259.88 48.678 264.818 41.3542L262.33 39.6772C257.927 46.2092 250.464 50.5 242 50.5V53.5ZM26 53.5H242V50.5H26V53.5ZM-1.5 26C-1.5 41.1878 10.8122 53.5 26 53.5V50.5C12.469 50.5 1.5 39.531 1.5 26H-1.5ZM268 36.5C265.613 36.5 263.562 37.8506 262.33 39.6772L264.818 41.3542C265.599 40.1958 266.788 39.5 268 39.5V36.5ZM268 17.5C269.834 17.5 271.391 16.3917 272.166 14.8742L269.494 13.5099C269.171 14.1418 268.58 14.5 268 14.5V17.5ZM273.67 39.6772C272.438 37.8506 270.388 36.5 268 36.5V39.5C269.212 39.5 270.401 40.1958 271.182 41.3542L273.67 39.6772ZM263.834 14.8742C264.609 16.3917 266.166 17.5 268 17.5V14.5C267.42 14.5 266.829 14.1418 266.506 13.5099L263.834 14.8742Z" fill="url(#paint0_linear_4_388)" fill-opacity="0.34" mask="url(#path-1-inside-1_4_388)"/>
<defs>
<linearGradient id="paint0_linear_4_388" x1="160" y1="0" x2="160" y2="52" gradientUnits="userSpaceOnUse">
<stop stop-color="white"/>
<stop offset="1" stop-color="white" stop-opacity="0"/>
</linearGradient>
</defs>
</svg>